<?xml version="1.0" encoding="utf-8"?><svg xmlns="http://www.w3.org/2000/svg" xmlns:xlink="http://www.w3.org/1999/xlink"><symbol viewBox="0 0 18 19" id="arrow" xmlns="http://www.w3.org/2000/svg"><path d="M8.858 16.074l-6.72-6.72 6.72-6.72"/></symbol><symbol viewBox="0 0 30 27" id="cart-ico" xmlns="http://www.w3.org/2000/svg"><path d="M24.616 18.663H12.13a2.312 2.312 0 0 1-2.223-1.626L5.541 3.09c-.013-.026-.04-.053-.066-.053H1.202A1.118 1.118 0 0 1 .077 1.923C.077 1.307.58.81 1.202.81h4.273c1.031 0 1.918.655 2.222 1.625l4.365 13.948c.014.026.04.052.067.052h12.487c.027 0 .066-.026.066-.052l3.056-8.875c0-.013.013-.039-.013-.065-.027-.026-.053-.026-.066-.026H15.753A1.118 1.118 0 0 1 14.63 6.3c0-.616.502-1.114 1.124-1.114H27.66c.754 0 1.455.354 1.891.97.437.616.556 1.39.305 2.084L26.8 17.115c-.304.918-1.19 1.547-2.183 1.547zm-14.022 8.324A2.397 2.397 0 0 0 13 24.6a2.397 2.397 0 0 0-2.407-2.386A2.397 2.397 0 0 0 8.185 24.6a2.397 2.397 0 0 0 2.408 2.386zm15.173 0a2.397 2.397 0 0 0 2.407-2.386 2.397 2.397 0 0 0-2.407-2.386 2.397 2.397 0 0 0-2.408 2.386 2.397 2.397 0 0 0 2.408 2.386z"/></symbol><symbol viewBox="0 0 13 13" id="close-ico" xmlns="http://www.w3.org/2000/svg"><rect x="11.313" width="2" height="16" rx="1" transform="rotate(45 11.313 0)"/><rect x=".243" y="1.414" width="2" height="16" rx="1" transform="rotate(-45 .243 1.414)"/></symbol><symbol viewBox="0 0 27 20" id="delivery-ico" xmlns="http://www.w3.org/2000/svg"><path d="M20.864 18.125c1.018 0 1.84-.837 1.84-1.875 0-1.037-.822-1.875-1.84-1.875-1.019 0-1.841.838-1.841 1.875 0 1.038.822 1.875 1.84 1.875zm1.84-11.25h-3.068V10h5.474l-2.405-3.125zM6.136 18.125c1.019 0 1.841-.837 1.841-1.875 0-1.037-.822-1.875-1.84-1.875-1.02 0-1.842.838-1.842 1.875 0 1.038.823 1.875 1.841 1.875zM23.318 5L27 10v6.25h-2.454c0 2.075-1.645 3.75-3.682 3.75-2.038 0-3.682-1.675-3.682-3.75H9.818c0 2.075-1.644 3.75-3.682 3.75-2.037 0-3.681-1.675-3.681-3.75H0V2.5C0 1.113 1.092 0 2.455 0h17.181v5h3.682zM2.455 2.5v11.25h.932a3.669 3.669 0 0 1 2.75-1.25c1.092 0 2.073.488 2.748 1.25h8.297V2.5H2.455zm8.59 1.25l4.296 4.375-4.295 4.375V9.375H4.909v-2.5h6.137V3.75z"/></symbol><symbol viewBox="0 0 10 21" id="facebook" xmlns="http://www.w3.org/2000/svg"><path fill-rule="evenodd" clip-rule="evenodd" d="M2.195 20.44v-9.358L0 11.085V7.477h2.196V5.314c0-1.555.347-2.682 1.06-3.448C4.034 1.03 5.246.622 6.957.622H9.89v3.604H8.057c-.657 0-1.042.114-1.245.37a1.742 1.742 0 0 0-.218 1.074l-.006 1.804H9.91l-.389 3.608H6.588v9.358H2.195z"/></symbol><symbol viewBox="0 0 13 12" id="heart" xmlns="http://www.w3.org/2000/svg"><path d="M6.5 1.045A3.807 3.807 0 0 1 9.134 0c2.129 0 3.86 1.74 3.866 3.879 0 1.183-.442 2.14-1.046 3.047-.81 1.214-2.41 2.546-2.41 2.546L6.5 12 3.455 9.472s-1.6-1.339-2.409-2.546C.442 6.019 0 5.056 0 3.879 0 1.739 1.73 0 3.86 0 4.881 0 5.81.4 6.5 1.045z"/></symbol><symbol viewBox="0 0 13 12" id="heart-half" xmlns="http://www.w3.org/2000/svg"><path fill-rule="evenodd" clip-rule="evenodd" d="M12.11 3.879A2.987 2.987 0 0 0 9.134.889c-.76 0-1.482.287-2.036.807l-.598.563v8.59L8.978 8.79l.017-.014c.168-.145 1.532-1.32 2.218-2.344.629-.939.897-1.702.897-2.553zM6.5 1.045A3.807 3.807 0 0 1 9.134 0c2.129 0 3.86 1.74 3.866 3.879 0 1.183-.442 2.14-1.046 3.047-.81 1.214-2.41 2.546-2.41 2.546L6.5 12 3.455 9.472s-1.6-1.339-2.409-2.546C.442 6.019 0 5.056 0 3.879 0 1.739 1.73 0 3.86 0 4.881 0 5.81.4 6.5 1.045z"/></symbol><symbol viewBox="0 0 21 21" id="instagram" xmlns="http://www.w3.org/2000/svg"><path fill-rule="evenodd" clip-rule="evenodd" d="M1.805 1.805A6.163 6.163 0 0 1 6.155 0h8.354a6.163 6.163 0 0 1 6.156 6.156v8.353a6.163 6.163 0 0 1-6.156 6.156H6.156A6.163 6.163 0 0 1 0 14.509V6.156a6.163 6.163 0 0 1 1.805-4.35zm4.35 16.78h8.354a4.083 4.083 0 0 0 4.077-4.076V6.156a4.081 4.081 0 0 0-4.077-4.078H6.156a4.082 4.082 0 0 0-4.077 4.078v8.353a4.082 4.082 0 0 0 4.077 4.076zm.4-12.03a5.35 5.35 0 0 1 3.777-1.567 5.352 5.352 0 0 1 5.346 5.343 5.35 5.35 0 0 1-5.345 5.345 5.35 5.35 0 0 1-5.346-5.344 5.35 5.35 0 0 1 1.567-3.778zm8.227-2.432a1.282 1.282 0 0 1 1.81 0c.24.24.375.565.376.905a1.283 1.283 0 0 1-1.281 1.28 1.282 1.282 0 0 1-.905-2.185zM8.024 12.64a3.269 3.269 0 0 0 2.308.958 3.27 3.27 0 0 0 3.266-3.266 3.27 3.27 0 0 0-3.266-3.266 3.27 3.27 0 0 0-3.266 3.266 3.27 3.27 0 0 0 .958 2.308z"/></symbol><symbol viewBox="0 0 21 13" id="lang-ru" xmlns="http://www.w3.org/2000/svg"><path d="M7.44 11.911h.749a.431.431 0 0 0 .38-.643l-2.422-4.47.143-.062c.677-.285 1.211-.694 1.59-1.224.38-.52.565-1.184.565-1.97 0-1.143-.37-2.031-1.098-2.634C6.608.306 5.541 0 4.167 0H.871A.87.87 0 0 0 0 .868v10.176c0 .48.39.867.872.867h.093a.87.87 0 0 0 .872-.867V7.216h2.606l2.227 4.226a.86.86 0 0 0 .77.47zM1.837 5.797V1.42h2.39c.78.01 1.376.214 1.776.592.4.388.605.929.605 1.623 0 .663-.215 1.204-.656 1.582-.431.388-1.027.581-1.786.581h-2.33zm18.471 2.215V.868A.87.87 0 0 0 19.434 0h-.082a.87.87 0 0 0-.872.868V7.95c0 1.807-.872 2.725-2.606 2.725-.842 0-1.498-.235-1.94-.694-.441-.46-.667-1.123-.667-1.97V.868A.87.87 0 0 0 12.396 0h-.082a.87.87 0 0 0-.872.868v7.134c0 1.276.4 2.286 1.19 3 .79.715 1.888 1.083 3.243 1.083 1.344 0 2.432-.368 3.232-1.103.8-.724 1.2-1.724 1.2-2.97z"/></symbol><symbol viewBox="0 0 28 26" id="like-ico" xmlns="http://www.w3.org/2000/svg"><path d="M19.406 3.152c3.28 0 5.953 2.648 5.953 5.899 0 1.704-.556 3.238-1.839 5.138-1.521 2.229-4.656 4.837-4.683 4.864l-5.027 4.129-5.026-4.116c-.873-.721-3.426-3.002-4.683-4.864-1.297-1.913-1.852-3.447-1.852-5.151 0-3.251 2.672-5.9 5.953-5.9a5.93 5.93 0 0 1 4.06 1.587l1.535 1.429 1.535-1.43a5.991 5.991 0 0 1 4.074-1.585zm0-2.229a8.15 8.15 0 0 0-5.595 2.19A8.269 8.269 0 0 0 8.2.922C3.679.923 0 4.568 0 9.051c0 2.464.94 4.483 2.222 6.384 1.72 2.53 5.12 5.335 5.12 5.335l5.265 4.313a1.85 1.85 0 0 0 2.38 0l5.266-4.313s3.4-2.792 5.12-5.335c1.282-1.901 2.222-3.907 2.222-6.384.013-4.483-3.665-8.128-8.189-8.128z"/></symbol><symbol viewBox="0 0 131 49" id="logo" xmlns="http://www.w3.org/2000/svg"><path d="M38.991 48.862c-.07 0-.07 0 0 0v-4.686c0-.069.07-.138.14-.138h.14c.071 0 .141.069.141.138v4.342h2.735c.07 0 .14.069.14.138v.137c0 .07-.07.138-.14.138h-3.156v-.069z"/><path d="M38.991 48.862c-.07 0-.07 0 0 0v-4.686c0-.069.07-.138.14-.138h.14c.071 0 .141.069.141.138v4.342h2.735c.07 0 .14.069.14.138v.137c0 .07-.07.138-.14.138h-3.156v-.069zm7.154-4.617c0-.069.07-.138.14-.138h.14c.07 0 .14.07.14.138v4.549c0 .069-.07.137-.14.137h-.14c-.07 0-.14-.069-.14-.137v-4.549z"/><path d="M46.145 44.245c0-.069.07-.138.14-.138h.14c.07 0 .14.07.14.138v4.549c0 .069-.07.137-.14.137h-.14c-.07 0-.14-.069-.14-.137v-4.549zm5.259 4.548c0 .07-.07.138-.14.138h-.14c-.07 0-.14-.069-.14-.138v-4.548c0-.07.07-.138.14-.138h.07c.07 0 .14.069.21.069l3.296 4.066v-4.066c0-.069.07-.138.14-.138h.14c.07 0 .141.069.141.138v4.548c0 .07-.07.138-.14.138h-.14c-.07 0-.14 0-.21-.069l-3.297-4.066v4.066h.07z"/><path d="M51.404 48.793c0 .07-.07.138-.14.138h-.14c-.07 0-.14-.069-.14-.138v-4.548c0-.07.07-.138.14-.138h.07c.07 0 .14.069.21.069l3.296 4.066v-4.066c0-.069.07-.138.14-.138h.14c.07 0 .141.069.141.138v4.548c0 .07-.07.138-.14.138h-.14c-.07 0-.14 0-.21-.069l-3.297-4.066v4.066h.07zm10.519-2.067c-.07 0-.14-.069-.14-.138v-.069c0-.069.07-.138.14-.138h1.964v2.343c0 .07-.07.138-.14.138h-.07c-.07 0-.14-.069-.14-.138v-.62s0-.069-.07 0c-.422.552-1.053.827-1.824.827-1.403 0-2.525-1.102-2.525-2.48 0-1.38 1.122-2.482 2.525-2.482.771 0 1.472.345 1.963.896.07.07 0 .138 0 .138l-.14.069c-.07.069-.14 0-.14 0-.631-.69-1.683-1.034-2.735-.483-.42.207-.772.62-.982 1.103-.561 1.516.561 2.895 2.034 2.895.771 0 1.402-.414 1.823-.965v-.828c0-.068-.07-.068-.07-.068h-1.473z"/><path d="M61.923 46.726c-.07 0-.14-.069-.14-.138v-.069c0-.069.07-.138.14-.138h1.964v2.343c0 .07-.07.138-.14.138h-.07c-.07 0-.14-.069-.14-.138v-.62s0-.069-.07 0c-.422.552-1.053.827-1.824.827-1.403 0-2.525-1.102-2.525-2.48 0-1.38 1.122-2.482 2.525-2.482.771 0 1.472.345 1.963.896.07.07 0 .138 0 .138l-.14.069c-.07.069-.14 0-.14 0-.631-.69-1.683-1.034-2.735-.483-.42.207-.772.62-.982 1.103-.561 1.516.561 2.895 2.034 2.895.771 0 1.402-.414 1.823-.965v-.828c0-.068-.07-.068-.07-.068h-1.473zm6.312 2.136v-4.755h3.226c.07 0 .14.07.14.138v.138c0 .069-.07.138-.14.138h-2.876v1.93h2.455c.07 0 .14.068.14.137v.138c0 .069-.07.138-.14.138h-2.455v1.792h2.876c.07 0 .14.069.14.138v.137c0 .07-.07.138-.14.138h-3.226v-.207z"/><path d="M68.235 48.862v-4.755h3.226c.07 0 .14.07.14.138v.138c0 .069-.07.138-.14.138h-2.876v1.93h2.455c.07 0 .14.068.14.137v.138c0 .069-.07.138-.14.138h-2.455v1.792h2.876c.07 0 .14.069.14.138v.137c0 .07-.07.138-.14.138h-3.226v-.207zm7.504-4.755h2.174c1.052 0 1.683.69 1.683 1.516 0 .69-.42 1.24-1.122 1.448l1.192 1.654c0 .069 0 .069-.07.069h-.21c-.07 0-.14-.07-.14-.07l-1.123-1.584s-.07-.07-.14-.07h-1.824v1.586c0 .069-.07.138-.14.138h-.14c-.07 0-.14-.07-.14-.138v-4.549zm2.174.345h-1.754v2.412h1.754c.841 0 1.332-.551 1.332-1.172-.07-.689-.49-1.24-1.332-1.24z"/><path d="M75.739 44.107h2.174c1.052 0 1.683.69 1.683 1.516 0 .69-.42 1.24-1.122 1.448l1.192 1.654c0 .069 0 .069-.07.069h-.21c-.07 0-.14-.07-.14-.07l-1.123-1.584s-.07-.07-.14-.07h-1.824v1.586c0 .069-.07.138-.14.138h-.14c-.07 0-.14-.07-.14-.138v-4.549zm2.174.345h-1.754v2.412h1.754c.841 0 1.332-.551 1.332-1.172-.07-.689-.49-1.24-1.332-1.24zm5.89-.207c0-.069.07-.138.14-.138h.141c.07 0 .14.07.14.138v4.549c0 .069-.07.137-.14.137h-.14c-.07 0-.14-.069-.14-.137v-4.549z"/><path d="M83.803 44.245c0-.069.07-.138.14-.138h.141c.07 0 .14.07.14.138v4.549c0 .069-.07.137-.14.137h-.14c-.07 0-.14-.069-.14-.137v-4.549zm4.909 4.617v-4.755h3.226c.07 0 .14.07.14.138v.138c0 .069-.07.138-.14.138h-2.875v1.93h2.455c.07 0 .14.068.14.137v.138c0 .069-.07.138-.14.138h-2.455v1.792h2.875c.07 0 .14.069.14.138v.137c0 .07-.07.138-.14.138h-3.226v-.207z"/><path d="M88.712 48.862v-4.755h3.226c.07 0 .14.07.14.138v.138c0 .069-.07.138-.14.138h-2.875v1.93h2.455c.07 0 .14.068.14.137v.138c0 .069-.07.138-.14.138h-2.455v1.792h2.875c.07 0 .14.069.14.138v.137c0 .07-.07.138-.14.138h-3.226v-.207zM.49 32.873a.475.475 0 0 1-.49-.482V11.165c0-.276.21-.483.49-.483h.702c.28 0 .491.207.491.482v19.642a.4.4 0 0 0 .42.413h12.133c.28 0 .491.207.491.483v.62c0 .276-.21.482-.49.482H.49v.07z"/><path d="M.49 32.873a.475.475 0 0 1-.49-.482V11.165c0-.276.21-.483.49-.483h.702c.28 0 .491.207.491.482v19.642a.4.4 0 0 0 .42.413h12.133c.28 0 .491.207.491.483v.62c0 .276-.21.482-.49.482H.49v.07zm48.6-21.708c0-.276.21-.483.49-.483h.702c.28 0 .491.207.491.482v13.301c0 4.963-3.296 8.822-9.467 8.822-6.172 0-9.468-3.86-9.468-8.822v-13.3c0-.276.21-.483.491-.483h.702c.28 0 .49.207.49.482v13.233c0 4.204 2.736 7.236 7.785 7.236 5.049 0 7.784-3.032 7.784-7.236V11.165z"/><path d="M49.09 11.165c0-.276.21-.483.49-.483h.702c.28 0 .491.207.491.482v13.301c0 4.963-3.296 8.822-9.467 8.822-6.172 0-9.468-3.86-9.468-8.822v-13.3c0-.276.21-.483.491-.483h.702c.28 0 .49.207.49.482v13.233c0 4.204 2.736 7.236 7.785 7.236 5.049 0 7.784-3.032 7.784-7.236V11.165zm24.124 21.157c0 .276-.21.482-.49.482h-.702a.475.475 0 0 1-.491-.482V11.164c0-.275.21-.482.49-.482h.492c.35 0 .631.138.841.414l15.078 18.607c.07.138.28.07.28-.069v-18.47c0-.275.21-.482.491-.482h.702c.28 0 .49.207.49.482v21.227c0 .276-.21.482-.49.482h-.491c-.35 0-.631-.137-.842-.413L73.495 13.852c-.07-.138-.28-.069-.28.07v18.4z"/><path d="M73.214 32.322c0 .276-.21.482-.49.482h-.702a.475.475 0 0 1-.491-.482V11.164c0-.275.21-.482.49-.482h.492c.35 0 .631.138.841.414l15.078 18.607c.07.138.28.07.28-.069v-18.47c0-.275.21-.482.491-.482h.702c.28 0 .49.207.49.482v21.227c0 .276-.21.482-.49.482h-.491c-.35 0-.631-.137-.842-.413L73.495 13.852c-.07-.138-.28-.069-.28.07v18.4zm45.513-21.226a.865.865 0 0 1 .772-.483h.841c.351 0 .632.207.772.483l9.818 21.295c.14.207 0 .483-.281.483h-.841c-.351 0-.631-.207-.701-.483l-1.964-4.204c-.14-.207-.351-.345-.561-.345h-13.395c-.21 0-.491.138-.561.345l-1.893 4.204c-.14.276-.421.483-.701.483h-.842c-.28 0-.421-.276-.28-.483l9.817-21.295zm1.333 1.723c-.07-.138-.281-.138-.351 0l-6.031 13.025c-.07.138 0 .345.211.345h11.921c.211 0 .351-.207.211-.345l-5.961-13.025z"/><path d="M118.727 11.096a.865.865 0 0 1 .772-.483h.841c.351 0 .632.207.772.483l9.818 21.295c.14.207 0 .483-.281.483h-.841c-.351 0-.631-.207-.701-.483l-1.964-4.204c-.14-.207-.351-.345-.561-.345h-13.395c-.21 0-.491.138-.561.345l-1.893 4.204c-.14.276-.421.483-.701.483h-.842c-.28 0-.421-.276-.28-.483l9.817-21.295zm1.333 1.723c-.07-.138-.281-.138-.351 0l-6.031 13.025c-.07.138 0 .345.211.345h11.921c.211 0 .351-.207.211-.345l-5.961-13.025zM41.095 8.408l-.771-.414c-.21-.068-.28-.344-.14-.482L44.11.207c.07-.207.28-.276.49-.138l.772.414c.21.068.28.344.14.482L41.586 8.27c-.07.207-.28.276-.49.138z"/></symbol><symbol viewBox="0 0 10 2" id="minus-ico" xmlns="http://www.w3.org/2000/svg"><rect y="2" width="2" height="10" rx="1" transform="rotate(-90 0 2)"/></symbol><symbol viewBox="0 0 28 20" id="payment-ico" xmlns="http://www.w3.org/2000/svg"><path d="M3 0C1.355 0 0 1.355 0 3v14c0 1.645 1.355 3 3 3h22c1.645 0 3-1.355 3-3V3c0-1.645-1.355-3-3-3H3zm0 2h22c.565 0 1 .435 1 1v2H3v2h23v10c0 .565-.435 1-1 1H3c-.565 0-1-.435-1-1V3c0-.565.435-1 1-1z"/></symbol><symbol viewBox="0 0 18 18" id="plus-ico" xmlns="http://www.w3.org/2000/svg"><path d="M0 11V7h18v4z"/><path d="M7 0h4v18H7z"/></symbol><symbol viewBox="0 0 14 14" id="search-ico" xmlns="http://www.w3.org/2000/svg"><path d="M13.755 12.558L9.7 8.501a5.305 5.305 0 0 0 1.024-3.142A5.369 5.369 0 0 0 5.357 0 5.36 5.36 0 0 0 0 5.36a5.367 5.367 0 0 0 5.357 5.359 5.299 5.299 0 0 0 3.14-1.024l4.056 4.056c.169.17.377.249.596.249a.81.81 0 0 0 .596-.249.838.838 0 0 0 .01-1.193zm-8.398-3.53A3.672 3.672 0 0 1 1.69 5.36a3.672 3.672 0 0 1 3.667-3.67 3.672 3.672 0 0 1 3.667 3.67 3.672 3.672 0 0 1-3.667 3.668z"/></symbol><symbol viewBox="0 0 18 10" id="size-ico" xmlns="http://www.w3.org/2000/svg"><path d="M5 1v3m4-3v5m4-5v3m4 5V1H1v8"/></symbol><symbol viewBox="0 0 19 19" id="telegram" xmlns="http://www.w3.org/2000/svg"><path d="M18.84.62a.435.435 0 0 0-.329-.151.727.727 0 0 0-.364.107c-.988.41-1.968.822-2.956 1.233a795.615 795.615 0 0 0-4.76 2.001c-1.664.697-3.338 1.395-5.002 2.1-1.448.608-2.905 1.216-4.352 1.823-.251.108-.512.214-.763.322a.49.49 0 0 0-.277.304.596.596 0 0 0 .01.437.57.57 0 0 0 .302.305c.494.197.98.402 1.474.6.936.375 1.863.76 2.8 1.134a.202.202 0 0 1 .121.134c.434 1.528.876 3.056 1.309 4.584l.364 1.27a.523.523 0 0 0 .128.224.5.5 0 0 0 .472.139.499.499 0 0 0 .224-.122c.39-.349.78-.688 1.162-1.027.416-.367.831-.742 1.249-1.109a.66.66 0 0 1 .442-.187c.18-.01.357.05.494.171.286.224.572.447.85.67.884.697 1.76 1.395 2.644 2.091l.876.689a.463.463 0 0 0 .381.098.52.52 0 0 0 .282-.154.548.548 0 0 0 .143-.293c.096-.482.19-.965.277-1.455.148-.75.287-1.501.434-2.252.139-.742.286-1.492.425-2.234.147-.75.286-1.492.425-2.243.147-.786.303-1.563.45-2.35l.39-2.02c.14-.742.287-1.492.425-2.234l.39-2.064a.568.568 0 0 0-.14-.54zm-3.953 3.834c-.154.175-.319.34-.494.492a.562.562 0 0 0-.078.071c-.269.277-.529.554-.798.822-.425.42-.823.85-1.248 1.27-.356.339-.676.705-1.032 1.045-.364.34-.693.715-1.049 1.063-.355.34-.685.706-1.04 1.046-.347.33-.668.688-1.014 1.027-.096.09-.191.179-.278.268a1.71 1.71 0 0 0-.468.903c-.035.188-.041.385-.07.572-.027.187-.04.375-.069.563l-.078.608a1.63 1.63 0 0 1-.041.286.23.23 0 0 1-.07.136.217.217 0 0 1-.138.06.194.194 0 0 1-.149-.04.205.205 0 0 1-.076-.138c-.061-.197-.104-.402-.166-.6-.157-.607-.321-1.215-.477-1.823-.096-.348-.182-.697-.278-1.045a1.328 1.328 0 0 1-.051-.295 1.04 1.04 0 0 1 .502-.885l.729-.482c.693-.465 1.378-.93 2.072-1.386.382-.259.763-.509 1.144-.77.555-.366 1.101-.742 1.656-1.108.408-.268.815-.545 1.214-.814l1.639-1.099c.086-.053.155-.053.207 0a.184.184 0 0 1-.001.252v.001z"/></symbol><symbol viewBox="0 0 14 15" id="user-ico" xmlns="http://www.w3.org/2000/svg"><path d="M12.273 15c-.497 0-.9-.384-.9-.859 0-2.517-2.15-4.568-4.786-4.568-2.637 0-4.787 2.051-4.787 4.568 0 .475-.402.86-.9.86s-.9-.385-.9-.86c0-3.467 2.955-6.297 6.597-6.297 3.643 0 6.598 2.82 6.598 6.297a.913.913 0 0 1-.922.86zM6.576 6.904c-1.779 0-3.23-1.384-3.23-3.082S4.797.739 6.576.739c1.78 0 3.23 1.385 3.23 3.083 0 1.708-1.45 3.082-3.23 3.082z"/></symbol><symbol viewBox="0 0 20 22" id="viber" xmlns="http://www.w3.org/2000/svg"><path d="M19.828 8.837c-.085-1.117-.219-2.219-.586-3.278-.382-1.11-.94-2.098-1.9-2.82a7.756 7.756 0 0 0-2.395-1.158A15.837 15.837 0 0 0 10.05.938c-1.872-.035-3.568.142-5.22.657-1.004.31-1.965.75-2.727 1.491C.917 4.252.429 5.742.182 7.332.086 8.077.032 8.827.02 9.579c-.057 1.518-.008 3.031.38 4.507.586 2.233 1.886 3.815 4.147 4.522a.306.306 0 0 1 .247.346c-.014.6-.014 1.2 0 1.801.014.41.042.848.495 1.046.487.205.826-.092 1.151-.396a.097.097 0 0 0 .022-.028 106.92 106.92 0 0 0 1.681-1.9.378.378 0 0 1 .36-.156c1.02.082 2.046.082 3.066 0 1.456-.106 2.883-.346 4.253-.862 1.583-.593 2.67-1.702 3.3-3.27.487-1.209.607-2.473.685-3.752.074-.865.08-1.734.02-2.6zm-1.462 1.822c-.017.952-.118 1.9-.304 2.834-.438 1.97-1.597 3.256-3.589 3.78a19.662 19.662 0 0 1-4.627.613 7.98 7.98 0 0 1-.919-.042.583.583 0 0 0-.523.212c-.883.975-1.78 1.943-2.67 2.911-.056.056-.092.134-.22.149 0-1.053-.027-2.085 0-3.116.022-.629.008-.643-.579-.862-1.716-.65-2.684-1.936-3.136-3.667-.283-1.088-.311-2.204-.304-3.32-.013-1.07.084-2.137.29-3.186.43-2.028 1.61-3.364 3.603-3.978 1.518-.473 3.08-.593 4.662-.572 1.307.014 2.607.106 3.872.438.876.233 1.73.516 2.465 1.074.742.565 1.145 1.35 1.434 2.204.524 1.477.602 2.988.545 4.528z"/><path d="M12.962 15.789c-.332.035-.614-.134-.905-.254a13.7 13.7 0 0 1-4.966-3.568c-1.137-1.3-2.049-2.741-2.593-4.394-.219-.671-.183-.94.403-1.498.26-.237.544-.445.848-.622.395-.233.777-.226 1.088.1.6.613 1.152 1.27 1.512 2.055.205.438.134.7-.247 1.017-.1.085-.198.17-.297.248-.374.296-.445.516-.318.982.205.734.65 1.32 1.201 1.822.447.434.975.775 1.554 1.003.523.184.721.12 1.053-.317.163-.213.297-.446.586-.537a.99.99 0 0 1 .813.091c.703.407 1.363.882 1.97 1.42a.786.786 0 0 1 .142.947 3.312 3.312 0 0 1-1.307 1.392.998.998 0 0 1-.537.113zm1.709-5.779v.283c.007.113-.02.232-.148.24-.141.007-.141-.12-.148-.226a9.27 9.27 0 0 0-.191-1.392 4.317 4.317 0 0 0-3.511-3.236 4.693 4.693 0 0 0-.7-.07c-.12 0-.325.063-.318-.163 0-.212.184-.177.318-.17a5.09 5.09 0 0 1 2.155.566c1.434.77 2.254 1.97 2.473 3.589.013.106.049.205.055.31.008.092 0 .191 0 .283.008-.014.015-.014.015-.014z"/><path d="M13.4 9.585v.283c0 .099-.042.162-.142.162-.099 0-.148-.063-.148-.162-.007-.19-.035-.374-.056-.558-.155-1.321-1.186-2.254-2.536-2.423a1.87 1.87 0 0 1-.346-.064.137.137 0 0 1-.099-.163.134.134 0 0 1 .141-.127c.189-.005.377.02.559.07A3.073 3.073 0 0 1 13.4 9.586z"/><path d="M10.68 7.812c.947.085 1.42.686 1.505 1.555.014.12 0 .254-.163.261-.148 0-.17-.12-.184-.247-.098-.82-.353-1.081-1.172-1.23-.12-.02-.247-.027-.233-.197.02-.142.134-.149.247-.142z"/></symbol></svg>