<?xml version="1.0" encoding="utf-8"?><svg xmlns="http://www.w3.org/2000/svg" xmlns:xlink="http://www.w3.org/1999/xlink"><symbol viewBox="0 0 18 19" id="arrow" xmlns="http://www.w3.org/2000/svg"><path d="M8.858 16.074l-6.72-6.72 6.72-6.72"/></symbol><symbol viewBox="0 0 30 27" id="cart-ico" xmlns="http://www.w3.org/2000/svg"><path d="M24.616 18.663H12.13a2.312 2.312 0 0 1-2.223-1.626L5.541 3.09c-.013-.026-.04-.053-.066-.053H1.202A1.118 1.118 0 0 1 .077 1.923C.077 1.307.58.81 1.202.81h4.273c1.031 0 1.918.655 2.222 1.625l4.365 13.948c.014.026.04.052.067.052h12.487c.027 0 .066-.026.066-.052l3.056-8.875c0-.013.013-.039-.013-.065-.027-.026-.053-.026-.066-.026H15.753A1.118 1.118 0 0 1 14.63 6.3c0-.616.502-1.114 1.124-1.114H27.66c.754 0 1.455.354 1.891.97.437.616.556 1.39.305 2.084L26.8 17.115c-.304.918-1.19 1.547-2.183 1.547zm-14.022 8.324A2.397 2.397 0 0 0 13 24.6a2.397 2.397 0 0 0-2.407-2.386A2.397 2.397 0 0 0 8.185 24.6a2.397 2.397 0 0 0 2.408 2.386zm15.173 0a2.397 2.397 0 0 0 2.407-2.386 2.397 2.397 0 0 0-2.407-2.386 2.397 2.397 0 0 0-2.408 2.386 2.397 2.397 0 0 0 2.408 2.386z"/></symbol><symbol viewBox="0 0 28 26" id="like-ico" xmlns="http://www.w3.org/2000/svg"><path d="M19.406 3.152c3.28 0 5.953 2.648 5.953 5.899 0 1.704-.556 3.238-1.839 5.138-1.521 2.229-4.656 4.837-4.683 4.864l-5.027 4.129-5.026-4.116c-.873-.721-3.426-3.002-4.683-4.864-1.297-1.913-1.852-3.447-1.852-5.151 0-3.251 2.672-5.9 5.953-5.9a5.93 5.93 0 0 1 4.06 1.587l1.535 1.429 1.535-1.43a5.991 5.991 0 0 1 4.074-1.585zm0-2.229a8.15 8.15 0 0 0-5.595 2.19A8.269 8.269 0 0 0 8.2.922C3.679.923 0 4.568 0 9.051c0 2.464.94 4.483 2.222 6.384 1.72 2.53 5.12 5.335 5.12 5.335l5.265 4.313a1.85 1.85 0 0 0 2.38 0l5.266-4.313s3.4-2.792 5.12-5.335c1.282-1.901 2.222-3.907 2.222-6.384.013-4.483-3.665-8.128-8.189-8.128z"/></symbol><symbol viewBox="0 0 131 49" id="logo" xmlns="http://www.w3.org/2000/svg"><path d="M38.991 48.862c-.07 0-.07 0 0 0v-4.686c0-.069.07-.138.14-.138h.14c.071 0 .141.069.141.138v4.342h2.735c.07 0 .14.069.14.138v.137c0 .07-.07.138-.14.138h-3.156v-.069z"/><path d="M38.991 48.862c-.07 0-.07 0 0 0v-4.686c0-.069.07-.138.14-.138h.14c.071 0 .141.069.141.138v4.342h2.735c.07 0 .14.069.14.138v.137c0 .07-.07.138-.14.138h-3.156v-.069zm7.154-4.617c0-.069.07-.138.14-.138h.14c.07 0 .14.07.14.138v4.549c0 .069-.07.137-.14.137h-.14c-.07 0-.14-.069-.14-.137v-4.549z"/><path d="M46.145 44.245c0-.069.07-.138.14-.138h.14c.07 0 .14.07.14.138v4.549c0 .069-.07.137-.14.137h-.14c-.07 0-.14-.069-.14-.137v-4.549zm5.259 4.548c0 .07-.07.138-.14.138h-.14c-.07 0-.14-.069-.14-.138v-4.548c0-.07.07-.138.14-.138h.07c.07 0 .14.069.21.069l3.296 4.066v-4.066c0-.069.07-.138.14-.138h.14c.07 0 .141.069.141.138v4.548c0 .07-.07.138-.14.138h-.14c-.07 0-.14 0-.21-.069l-3.297-4.066v4.066h.07z"/><path d="M51.404 48.793c0 .07-.07.138-.14.138h-.14c-.07 0-.14-.069-.14-.138v-4.548c0-.07.07-.138.14-.138h.07c.07 0 .14.069.21.069l3.296 4.066v-4.066c0-.069.07-.138.14-.138h.14c.07 0 .141.069.141.138v4.548c0 .07-.07.138-.14.138h-.14c-.07 0-.14 0-.21-.069l-3.297-4.066v4.066h.07zm10.519-2.067c-.07 0-.14-.069-.14-.138v-.069c0-.069.07-.138.14-.138h1.964v2.343c0 .07-.07.138-.14.138h-.07c-.07 0-.14-.069-.14-.138v-.62s0-.069-.07 0c-.422.552-1.053.827-1.824.827-1.403 0-2.525-1.102-2.525-2.48 0-1.38 1.122-2.482 2.525-2.482.771 0 1.472.345 1.963.896.07.07 0 .138 0 .138l-.14.069c-.07.069-.14 0-.14 0-.631-.69-1.683-1.034-2.735-.483-.42.207-.772.62-.982 1.103-.561 1.516.561 2.895 2.034 2.895.771 0 1.402-.414 1.823-.965v-.828c0-.068-.07-.068-.07-.068h-1.473z"/><path d="M61.923 46.726c-.07 0-.14-.069-.14-.138v-.069c0-.069.07-.138.14-.138h1.964v2.343c0 .07-.07.138-.14.138h-.07c-.07 0-.14-.069-.14-.138v-.62s0-.069-.07 0c-.422.552-1.053.827-1.824.827-1.403 0-2.525-1.102-2.525-2.48 0-1.38 1.122-2.482 2.525-2.482.771 0 1.472.345 1.963.896.07.07 0 .138 0 .138l-.14.069c-.07.069-.14 0-.14 0-.631-.69-1.683-1.034-2.735-.483-.42.207-.772.62-.982 1.103-.561 1.516.561 2.895 2.034 2.895.771 0 1.402-.414 1.823-.965v-.828c0-.068-.07-.068-.07-.068h-1.473zm6.312 2.136v-4.755h3.226c.07 0 .14.07.14.138v.138c0 .069-.07.138-.14.138h-2.876v1.93h2.455c.07 0 .14.068.14.137v.138c0 .069-.07.138-.14.138h-2.455v1.792h2.876c.07 0 .14.069.14.138v.137c0 .07-.07.138-.14.138h-3.226v-.207z"/><path d="M68.235 48.862v-4.755h3.226c.07 0 .14.07.14.138v.138c0 .069-.07.138-.14.138h-2.876v1.93h2.455c.07 0 .14.068.14.137v.138c0 .069-.07.138-.14.138h-2.455v1.792h2.876c.07 0 .14.069.14.138v.137c0 .07-.07.138-.14.138h-3.226v-.207zm7.504-4.755h2.174c1.052 0 1.683.69 1.683 1.516 0 .69-.42 1.24-1.122 1.448l1.192 1.654c0 .069 0 .069-.07.069h-.21c-.07 0-.14-.07-.14-.07l-1.123-1.584s-.07-.07-.14-.07h-1.824v1.586c0 .069-.07.138-.14.138h-.14c-.07 0-.14-.07-.14-.138v-4.549zm2.174.345h-1.754v2.412h1.754c.841 0 1.332-.551 1.332-1.172-.07-.689-.49-1.24-1.332-1.24z"/><path d="M75.739 44.107h2.174c1.052 0 1.683.69 1.683 1.516 0 .69-.42 1.24-1.122 1.448l1.192 1.654c0 .069 0 .069-.07.069h-.21c-.07 0-.14-.07-.14-.07l-1.123-1.584s-.07-.07-.14-.07h-1.824v1.586c0 .069-.07.138-.14.138h-.14c-.07 0-.14-.07-.14-.138v-4.549zm2.174.345h-1.754v2.412h1.754c.841 0 1.332-.551 1.332-1.172-.07-.689-.49-1.24-1.332-1.24zm5.89-.207c0-.069.07-.138.14-.138h.141c.07 0 .14.07.14.138v4.549c0 .069-.07.137-.14.137h-.14c-.07 0-.14-.069-.14-.137v-4.549z"/><path d="M83.803 44.245c0-.069.07-.138.14-.138h.141c.07 0 .14.07.14.138v4.549c0 .069-.07.137-.14.137h-.14c-.07 0-.14-.069-.14-.137v-4.549zm4.909 4.617v-4.755h3.226c.07 0 .14.07.14.138v.138c0 .069-.07.138-.14.138h-2.875v1.93h2.455c.07 0 .14.068.14.137v.138c0 .069-.07.138-.14.138h-2.455v1.792h2.875c.07 0 .14.069.14.138v.137c0 .07-.07.138-.14.138h-3.226v-.207z"/><path d="M88.712 48.862v-4.755h3.226c.07 0 .14.07.14.138v.138c0 .069-.07.138-.14.138h-2.875v1.93h2.455c.07 0 .14.068.14.137v.138c0 .069-.07.138-.14.138h-2.455v1.792h2.875c.07 0 .14.069.14.138v.137c0 .07-.07.138-.14.138h-3.226v-.207zM.49 32.873a.475.475 0 0 1-.49-.482V11.165c0-.276.21-.483.49-.483h.702c.28 0 .491.207.491.482v19.642a.4.4 0 0 0 .42.413h12.133c.28 0 .491.207.491.483v.62c0 .276-.21.482-.49.482H.49v.07z"/><path d="M.49 32.873a.475.475 0 0 1-.49-.482V11.165c0-.276.21-.483.49-.483h.702c.28 0 .491.207.491.482v19.642a.4.4 0 0 0 .42.413h12.133c.28 0 .491.207.491.483v.62c0 .276-.21.482-.49.482H.49v.07zm48.6-21.708c0-.276.21-.483.49-.483h.702c.28 0 .491.207.491.482v13.301c0 4.963-3.296 8.822-9.467 8.822-6.172 0-9.468-3.86-9.468-8.822v-13.3c0-.276.21-.483.491-.483h.702c.28 0 .49.207.49.482v13.233c0 4.204 2.736 7.236 7.785 7.236 5.049 0 7.784-3.032 7.784-7.236V11.165z"/><path d="M49.09 11.165c0-.276.21-.483.49-.483h.702c.28 0 .491.207.491.482v13.301c0 4.963-3.296 8.822-9.467 8.822-6.172 0-9.468-3.86-9.468-8.822v-13.3c0-.276.21-.483.491-.483h.702c.28 0 .49.207.49.482v13.233c0 4.204 2.736 7.236 7.785 7.236 5.049 0 7.784-3.032 7.784-7.236V11.165zm24.124 21.157c0 .276-.21.482-.49.482h-.702a.475.475 0 0 1-.491-.482V11.164c0-.275.21-.482.49-.482h.492c.35 0 .631.138.841.414l15.078 18.607c.07.138.28.07.28-.069v-18.47c0-.275.21-.482.491-.482h.702c.28 0 .49.207.49.482v21.227c0 .276-.21.482-.49.482h-.491c-.35 0-.631-.137-.842-.413L73.495 13.852c-.07-.138-.28-.069-.28.07v18.4z"/><path d="M73.214 32.322c0 .276-.21.482-.49.482h-.702a.475.475 0 0 1-.491-.482V11.164c0-.275.21-.482.49-.482h.492c.35 0 .631.138.841.414l15.078 18.607c.07.138.28.07.28-.069v-18.47c0-.275.21-.482.491-.482h.702c.28 0 .49.207.49.482v21.227c0 .276-.21.482-.49.482h-.491c-.35 0-.631-.137-.842-.413L73.495 13.852c-.07-.138-.28-.069-.28.07v18.4zm45.513-21.226a.865.865 0 0 1 .772-.483h.841c.351 0 .632.207.772.483l9.818 21.295c.14.207 0 .483-.281.483h-.841c-.351 0-.631-.207-.701-.483l-1.964-4.204c-.14-.207-.351-.345-.561-.345h-13.395c-.21 0-.491.138-.561.345l-1.893 4.204c-.14.276-.421.483-.701.483h-.842c-.28 0-.421-.276-.28-.483l9.817-21.295zm1.333 1.723c-.07-.138-.281-.138-.351 0l-6.031 13.025c-.07.138 0 .345.211.345h11.921c.211 0 .351-.207.211-.345l-5.961-13.025z"/><path d="M118.727 11.096a.865.865 0 0 1 .772-.483h.841c.351 0 .632.207.772.483l9.818 21.295c.14.207 0 .483-.281.483h-.841c-.351 0-.631-.207-.701-.483l-1.964-4.204c-.14-.207-.351-.345-.561-.345h-13.395c-.21 0-.491.138-.561.345l-1.893 4.204c-.14.276-.421.483-.701.483h-.842c-.28 0-.421-.276-.28-.483l9.817-21.295zm1.333 1.723c-.07-.138-.281-.138-.351 0l-6.031 13.025c-.07.138 0 .345.211.345h11.921c.211 0 .351-.207.211-.345l-5.961-13.025zM41.095 8.408l-.771-.414c-.21-.068-.28-.344-.14-.482L44.11.207c.07-.207.28-.276.49-.138l.772.414c.21.068.28.344.14.482L41.586 8.27c-.07.207-.28.276-.49.138z"/></symbol><symbol viewBox="0 0 14 14" id="search-ico" xmlns="http://www.w3.org/2000/svg"><path d="M13.755 12.558L9.7 8.501a5.305 5.305 0 0 0 1.024-3.142A5.369 5.369 0 0 0 5.357 0 5.36 5.36 0 0 0 0 5.36a5.367 5.367 0 0 0 5.357 5.359 5.299 5.299 0 0 0 3.14-1.024l4.056 4.056c.169.17.377.249.596.249a.81.81 0 0 0 .596-.249.838.838 0 0 0 .01-1.193zm-8.398-3.53A3.672 3.672 0 0 1 1.69 5.36a3.672 3.672 0 0 1 3.667-3.67 3.672 3.672 0 0 1 3.667 3.67 3.672 3.672 0 0 1-3.667 3.668z"/></symbol><symbol viewBox="0 0 14 15" id="user-ico" xmlns="http://www.w3.org/2000/svg"><path d="M12.273 15c-.497 0-.9-.384-.9-.859 0-2.517-2.15-4.568-4.786-4.568-2.637 0-4.787 2.051-4.787 4.568 0 .475-.402.86-.9.86s-.9-.385-.9-.86c0-3.467 2.955-6.297 6.597-6.297 3.643 0 6.598 2.82 6.598 6.297a.913.913 0 0 1-.922.86zM6.576 6.904c-1.779 0-3.23-1.384-3.23-3.082S4.797.739 6.576.739c1.78 0 3.23 1.385 3.23 3.083 0 1.708-1.45 3.082-3.23 3.082z"/></symbol></svg>