<svg width="30" height="27" viewBox="0 0 30 27" fill="none" xmlns="http://www.w3.org/2000/svg"><path d="M24.616 18.663H12.13a2.312 2.312 0 0 1-2.223-1.626L5.541 3.09c-.013-.026-.04-.053-.066-.053H1.202A1.118 1.118 0 0 1 .077 1.923C.077 1.307.58.81 1.202.81h4.273c1.031 0 1.918.655 2.222 1.625l4.365 13.948c.014.026.04.052.067.052h12.487c.027 0 .066-.026.066-.052l3.056-8.875c0-.013.013-.039-.013-.065-.027-.026-.053-.026-.066-.026H15.753A1.118 1.118 0 0 1 14.63 6.3c0-.616.502-1.114 1.124-1.114H27.66c.754 0 1.455.354 1.891.97.437.616.556 1.39.305 2.084L26.8 17.115c-.304.918-1.19 1.547-2.183 1.547zm-14.022 8.324A2.397 2.397 0 0 0 13 24.6a2.397 2.397 0 0 0-2.407-2.386A2.397 2.397 0 0 0 8.185 24.6a2.397 2.397 0 0 0 2.408 2.386zm15.173 0a2.397 2.397 0 0 0 2.407-2.386 2.397 2.397 0 0 0-2.407-2.386 2.397 2.397 0 0 0-2.408 2.386 2.397 2.397 0 0 0 2.408 2.386z" fill="#3F3F41"/></svg>