<svg width="27" height="20" viewBox="0 0 27 20" fill="none" xmlns="http://www.w3.org/2000/svg">
<path d="M20.8636 18.125C21.8823 18.125 22.7045 17.2875 22.7045 16.25C22.7045 15.2125 21.8823 14.375 20.8636 14.375C19.845 14.375 19.0227 15.2125 19.0227 16.25C19.0227 17.2875 19.845 18.125 20.8636 18.125ZM22.7045 6.875H19.6364V10H25.11L22.7045 6.875ZM6.13636 18.125C7.155 18.125 7.97727 17.2875 7.97727 16.25C7.97727 15.2125 7.155 14.375 6.13636 14.375C5.11773 14.375 4.29545 15.2125 4.29545 16.25C4.29545 17.2875 5.11773 18.125 6.13636 18.125ZM23.3182 5L27 10V16.25H24.5455C24.5455 18.325 22.9009 20 20.8636 20C18.8264 20 17.1818 18.325 17.1818 16.25H9.81818C9.81818 18.325 8.17364 20 6.13636 20C4.09909 20 2.45455 18.325 2.45455 16.25H0V2.5C0 1.1125 1.09227 0 2.45455 0H19.6364V5H23.3182ZM2.45455 2.5V13.75H3.38727C4.06227 12.9875 5.04409 12.5 6.13636 12.5C7.22864 12.5 8.21045 12.9875 8.88545 13.75H17.1818V2.5H2.45455ZM11.0455 3.75L15.3409 8.125L11.0455 12.5V9.375H4.90909V6.875H11.0455V3.75Z" fill="#333333"/>
</svg>
