<svg width="13" height="12" viewBox="0 0 13 12" fill="none" xmlns="http://www.w3.org/2000/svg">
<path d="M9.13362 0.888425C10.7773 0.888425 12.1097 2.23358 12.1097 3.87904C12.1097 4.72993 11.842 5.49322 11.2131 6.4317C10.4847 7.52033 8.99042 8.77789 8.97797 8.79041L6.5 10.8488L4.02203 8.79041C4.00958 8.77789 2.5091 7.52033 1.78065 6.4317C1.15182 5.49322 0.8841 4.72993 0.8841 3.87904C0.8841 2.23358 2.21648 0.888425 3.86015 0.888425C4.61973 0.888425 5.34195 1.17623 5.88985 1.69552L6.49377 2.26486L7.0977 1.69552C7.65182 1.17623 8.37404 0.888425 9.13362 0.888425ZM9.13362 0C8.11255 0 7.18487 0.394161 6.5 1.04484C5.80891 0.400417 4.88123 0 3.86015 0C1.73084 0 0 1.73931 0 3.87904C0 5.05527 0.44205 6.01877 1.04598 6.92596C1.85536 8.13347 3.45546 9.47237 3.45546 9.47237L6.5 12L9.54454 9.47237C9.54454 9.47237 11.1446 8.13973 11.954 6.92596C12.558 6.01877 13 5.06152 13 3.87904C12.9938 1.73931 11.2629 0 9.13362 0Z" fill="#BDBDBD"/>
</svg>
