<svg width="21" height="21" viewBox="0 0 21 21" fill="none" xmlns="http://www.w3.org/2000/svg">
<path fill-rule="evenodd" clip-rule="evenodd" d="M1.80498 1.80519C2.95901 0.651097 4.52369 0.00189342 6.15578 0H14.5093C16.1413 0.00189342 17.706 0.651097 18.8601 1.80519C20.0141 2.95928 20.6632 4.52401 20.665 6.1561V14.5089C20.6632 16.1411 20.0141 17.7058 18.86 18.8599C17.7059 20.014 16.1411 20.6632 14.5089 20.665H6.1561C4.52396 20.6632 2.95917 20.014 1.80507 18.8599C0.650974 17.7058 0.00181111 16.1411 0 14.5089V6.1561C0.00181096 4.52401 0.650946 2.95928 1.80498 1.80519ZM6.15578 18.5855H14.5086C15.5895 18.5842 16.6264 18.1545 17.3906 17.3902C18.1548 16.6258 18.5847 15.5895 18.5858 14.5086V6.15578C18.5847 5.07476 18.1548 4.03836 17.3904 3.27393C16.626 2.50951 15.5897 2.0795 14.5086 2.07826H6.15578C5.07478 2.07958 4.03845 2.5096 3.2741 3.27401C2.50975 4.03841 2.0798 5.07478 2.07857 6.15578V14.5086C2.0798 15.5896 2.50977 16.6259 3.27414 17.3902C4.0385 18.1545 5.07484 18.5844 6.15578 18.5855ZM6.55412 6.55443C7.55623 5.55232 8.91503 4.98881 10.3322 4.98758C11.7491 4.98881 13.1083 5.55243 14.1104 6.5542C15.1124 7.55597 15.6761 8.91435 15.6778 10.3313C15.6764 11.7483 15.1128 13.107 14.1107 14.109C13.1086 15.1109 11.7499 15.6744 10.3328 15.6756C8.91585 15.6745 7.5572 15.1113 6.55502 14.1096C5.55283 13.1079 4.989 11.7495 4.98727 10.3325C4.98851 8.91533 5.55202 7.55653 6.55412 6.55443ZM14.7817 4.12251C15.0217 3.88239 15.3473 3.74731 15.6868 3.7469C16.0262 3.74748 16.3522 3.88287 16.5922 4.12288C16.8322 4.3629 16.9673 4.68826 16.9679 5.02769C16.9674 5.36725 16.8322 5.69277 16.5921 5.93282C16.3519 6.17287 16.0264 6.30785 15.6868 6.30818C15.3473 6.30776 15.0219 6.17273 14.7818 5.93268C14.5418 5.69264 14.4067 5.36717 14.4063 5.02769C14.4066 4.68816 14.5416 4.36262 14.7817 4.12251ZM8.02397 12.6404C8.63622 13.2527 9.46636 13.597 10.3322 13.5979C11.198 13.5969 12.0286 13.2527 12.6408 12.6404C13.2529 12.0281 13.5971 11.198 13.598 10.3322C13.597 9.46637 13.2526 8.6363 12.6403 8.02406C12.0281 7.41183 11.198 7.06744 10.3322 7.06645C9.46639 7.06744 8.6363 7.41183 8.02406 8.02406C7.41183 8.6363 7.06745 9.46637 7.06647 10.3322C7.06737 11.198 7.41172 12.0282 8.02397 12.6404Z" fill="white"/>
</svg>
