<svg width="21" height="13" viewBox="0 0 21 13" fill="none" xmlns="http://www.w3.org/2000/svg">
<path d="M7.4395 11.9113H8.18858C8.51694 11.9113 8.73243 11.5643 8.56825 11.2683L6.14657 6.7977L6.29023 6.73646C6.96748 6.45067 7.50107 6.0424 7.88074 5.51165C8.26041 4.9911 8.44512 4.32766 8.44512 3.54174C8.44512 2.39859 8.0757 1.5106 7.34715 0.908401C6.60833 0.306203 5.54114 0 4.16612 0H0.872217C0.389932 0 0 0.387857 0 0.867574V11.0437C0 11.5234 0.389932 11.9113 0.872217 11.9113H0.96457C1.44685 11.9113 1.83679 11.5234 1.83679 11.0437V7.21617H4.44318L6.6699 11.4418C6.81356 11.7276 7.11114 11.9113 7.4395 11.9113ZM1.83679 5.79744V1.41874H4.22769C5.00755 1.42895 5.60271 1.63308 6.00291 2.01073C6.4031 2.39859 6.60833 2.93954 6.60833 3.6336C6.60833 4.29704 6.39284 4.838 5.9516 5.21565C5.52062 5.60351 4.92546 5.79744 4.16612 5.79744H1.83679Z" fill="#C4C4C4"/>
<path d="M20.3075 8.0123V0.867574C20.3075 0.387857 19.9176 0 19.4353 0H19.3532C18.871 0 18.481 0.387857 18.481 0.867574V7.95106C18.481 9.75766 17.6088 10.6763 15.8746 10.6763C15.0332 10.6763 14.3765 10.4415 13.9352 9.98221C13.494 9.5229 13.2682 8.85946 13.2682 8.0123V0.867574C13.2682 0.387857 12.8783 0 12.396 0H12.3139C11.8316 0 11.4417 0.387857 11.4417 0.867574V8.0021C11.4417 9.27794 11.8419 10.2884 12.632 11.0029C13.4222 11.7174 14.5201 12.0848 15.8746 12.0848C17.2189 12.0848 18.3066 11.7174 19.107 10.9825C19.9073 10.2578 20.3075 9.25753 20.3075 8.0123Z" fill="#C4C4C4"/>
</svg>
