<svg width="22" height="12" viewBox="0 0 22 12" fill="none" xmlns="http://www.w3.org/2000/svg">
<path d="M8.77948 7.95608V0.861486C8.77948 0.385135 8.39379 0 7.91675 0H7.83556C7.35852 0 6.97283 0.385135 6.97283 0.861486V7.89527C6.97283 9.68919 6.11011 10.6014 4.39481 10.6014C3.56254 10.6014 2.91296 10.3682 2.47652 9.91216C2.04009 9.45608 1.81679 8.7973 1.81679 7.95608V0.861486C1.81679 0.385135 1.42096 0 0.95407 0H0.862723C0.385688 0 0 0.385135 0 0.861486V7.94595C0 9.21284 0.395838 10.2162 1.17736 10.9257C1.95889 11.6351 3.0449 12 4.38466 12C5.71427 12 6.79014 11.6351 7.58181 10.9054C8.37349 10.1858 8.77948 9.19257 8.77948 7.95608Z" fill="#C4C4C4"/>
<path d="M18.715 9.01013L19.5067 11.25C19.6285 11.5946 19.9533 11.8277 20.3187 11.8277H20.3491C20.9479 11.8277 21.3742 11.2196 21.1611 10.6622L17.3245 0.557432C17.1926 0.222973 16.8779 0 16.5125 0H16.0152C15.66 0 15.3352 0.222973 15.2032 0.557432L11.3768 10.6622C11.1636 11.2297 11.5798 11.8277 12.1888 11.8277H12.2091C12.5745 11.8277 12.8992 11.5946 13.021 11.25L13.8026 9.01013H18.715ZM16.2689 1.99662L18.2278 7.60135H14.31L16.2689 1.99662Z" fill="#C4C4C4"/>
</svg>
