<svg width="21" height="12" viewBox="0 0 21 12" fill="none" xmlns="http://www.w3.org/2000/svg">
<path d="M0.725886 11.9795H7.10331C7.49736 11.9795 7.80846 11.6715 7.80846 11.2814V11.2609C7.80846 10.8708 7.49736 10.5629 7.10331 10.5629H2.01174C1.92878 10.5629 1.86656 10.5013 1.86656 10.4192V6.65184C1.86656 6.56972 1.92878 6.50813 2.01174 6.50813H6.25299C6.64704 6.50813 6.95813 6.20017 6.95813 5.8101C6.95813 5.42002 6.64704 5.11206 6.25299 5.11206H2.01174C1.92878 5.11206 1.86656 5.05047 1.86656 4.96835V1.58084C1.86656 1.49872 1.92878 1.43713 2.01174 1.43713H7.05146C7.44551 1.43713 7.75661 1.12917 7.75661 0.739093V0.698033C7.74624 0.307956 7.43514 0 7.05146 0H0.725886C0.321464 0 0 0.318221 0 0.718563V11.2609C0 11.6613 0.321464 11.9795 0.725886 11.9795Z" fill="#C4C4C4"/>
<path d="M20.2746 10.7476V0.913601C20.2746 0.410607 19.8598 0 19.3517 0C18.8436 0 18.4288 0.410607 18.4288 0.913601V9.10522L13.0261 0.585115C12.798 0.225834 12.4039 0.0102652 11.9788 0.0102652C11.2943 0.0102652 10.7344 0.564585 10.7344 1.24209V11.0864C10.7344 11.5894 11.1492 12 11.6573 12H11.678C12.1861 12 12.6009 11.5894 12.6009 11.0864V2.91531L17.9932 11.4046C18.2214 11.7639 18.6154 11.9795 19.0406 11.9795C19.7146 11.9795 20.2746 11.4251 20.2746 10.7476Z" fill="#C4C4C4"/>
</svg>
