<svg width="28" height="26" viewBox="0 0 28 26" fill="none" xmlns="http://www.w3.org/2000/svg"><path d="M19.406 3.152c3.28 0 5.953 2.648 5.953 5.899 0 1.704-.556 3.238-1.839 5.138-1.521 2.229-4.656 4.837-4.683 4.864l-5.027 4.129-5.026-4.116c-.873-.721-3.426-3.002-4.683-4.864-1.297-1.913-1.852-3.447-1.852-5.151 0-3.251 2.672-5.9 5.953-5.9a5.93 5.93 0 0 1 4.06 1.587l1.535 1.429 1.535-1.43a5.991 5.991 0 0 1 4.074-1.585zm0-2.229a8.15 8.15 0 0 0-5.595 2.19A8.269 8.269 0 0 0 8.2.922C3.679.923 0 4.568 0 9.051c0 2.464.94 4.483 2.222 6.384 1.72 2.53 5.12 5.335 5.12 5.335l5.265 4.313a1.85 1.85 0 0 0 2.38 0l5.266-4.313s3.4-2.792 5.12-5.335c1.282-1.901 2.222-3.907 2.222-6.384.013-4.483-3.665-8.128-8.189-8.128z" fill="#3F3F41"/></svg>