<svg width="131" height="49" viewBox="0 0 131 49" fill="none" xmlns="http://www.w3.org/2000/svg"><path d="M38.991 48.862c-.07 0-.07 0 0 0v-4.686c0-.069.07-.138.14-.138h.14c.071 0 .141.069.141.138v4.342h2.735c.07 0 .14.069.14.138v.137c0 .07-.07.138-.14.138h-3.156v-.069z" fill="#000"/><path d="M38.991 48.862c-.07 0-.07 0 0 0v-4.686c0-.069.07-.138.14-.138h.14c.071 0 .141.069.141.138v4.342h2.735c.07 0 .14.069.14.138v.137c0 .07-.07.138-.14.138h-3.156v-.069zm7.154-4.617c0-.069.07-.138.14-.138h.14c.07 0 .14.07.14.138v4.549c0 .069-.07.137-.14.137h-.14c-.07 0-.14-.069-.14-.137v-4.549z" fill="#000"/><path d="M46.145 44.245c0-.069.07-.138.14-.138h.14c.07 0 .14.07.14.138v4.549c0 .069-.07.137-.14.137h-.14c-.07 0-.14-.069-.14-.137v-4.549zm5.259 4.548c0 .07-.07.138-.14.138h-.14c-.07 0-.14-.069-.14-.138v-4.548c0-.07.07-.138.14-.138h.07c.07 0 .14.069.21.069l3.296 4.066v-4.066c0-.069.07-.138.14-.138h.14c.07 0 .141.069.141.138v4.548c0 .07-.07.138-.14.138h-.14c-.07 0-.14 0-.21-.069l-3.297-4.066v4.066h.07z" fill="#000"/><path d="M51.404 48.793c0 .07-.07.138-.14.138h-.14c-.07 0-.14-.069-.14-.138v-4.548c0-.07.07-.138.14-.138h.07c.07 0 .14.069.21.069l3.296 4.066v-4.066c0-.069.07-.138.14-.138h.14c.07 0 .141.069.141.138v4.548c0 .07-.07.138-.14.138h-.14c-.07 0-.14 0-.21-.069l-3.297-4.066v4.066h.07zm10.519-2.067c-.07 0-.14-.069-.14-.138v-.069c0-.069.07-.138.14-.138h1.964v2.343c0 .07-.07.138-.14.138h-.07c-.07 0-.14-.069-.14-.138v-.62s0-.069-.07 0c-.422.552-1.053.827-1.824.827-1.403 0-2.525-1.102-2.525-2.48 0-1.38 1.122-2.482 2.525-2.482.771 0 1.472.345 1.963.896.07.07 0 .138 0 .138l-.14.069c-.07.069-.14 0-.14 0-.631-.69-1.683-1.034-2.735-.483-.42.207-.772.62-.982 1.103-.561 1.516.561 2.895 2.034 2.895.771 0 1.402-.414 1.823-.965v-.828c0-.068-.07-.068-.07-.068h-1.473z" fill="#000"/><path d="M61.923 46.726c-.07 0-.14-.069-.14-.138v-.069c0-.069.07-.138.14-.138h1.964v2.343c0 .07-.07.138-.14.138h-.07c-.07 0-.14-.069-.14-.138v-.62s0-.069-.07 0c-.422.552-1.053.827-1.824.827-1.403 0-2.525-1.102-2.525-2.48 0-1.38 1.122-2.482 2.525-2.482.771 0 1.472.345 1.963.896.07.07 0 .138 0 .138l-.14.069c-.07.069-.14 0-.14 0-.631-.69-1.683-1.034-2.735-.483-.42.207-.772.62-.982 1.103-.561 1.516.561 2.895 2.034 2.895.771 0 1.402-.414 1.823-.965v-.828c0-.068-.07-.068-.07-.068h-1.473zm6.312 2.136v-4.755h3.226c.07 0 .14.07.14.138v.138c0 .069-.07.138-.14.138h-2.876v1.93h2.455c.07 0 .14.068.14.137v.138c0 .069-.07.138-.14.138h-2.455v1.792h2.876c.07 0 .14.069.14.138v.137c0 .07-.07.138-.14.138h-3.226v-.207z" fill="#000"/><path d="M68.235 48.862v-4.755h3.226c.07 0 .14.07.14.138v.138c0 .069-.07.138-.14.138h-2.876v1.93h2.455c.07 0 .14.068.14.137v.138c0 .069-.07.138-.14.138h-2.455v1.792h2.876c.07 0 .14.069.14.138v.137c0 .07-.07.138-.14.138h-3.226v-.207zm7.504-4.755h2.174c1.052 0 1.683.69 1.683 1.516 0 .69-.42 1.24-1.122 1.448l1.192 1.654c0 .069 0 .069-.07.069h-.21c-.07 0-.14-.07-.14-.07l-1.123-1.584s-.07-.07-.14-.07h-1.824v1.586c0 .069-.07.138-.14.138h-.14c-.07 0-.14-.07-.14-.138v-4.549zm2.174.345h-1.754v2.412h1.754c.841 0 1.332-.551 1.332-1.172-.07-.689-.49-1.24-1.332-1.24z" fill="#000"/><path d="M75.739 44.107h2.174c1.052 0 1.683.69 1.683 1.516 0 .69-.42 1.24-1.122 1.448l1.192 1.654c0 .069 0 .069-.07.069h-.21c-.07 0-.14-.07-.14-.07l-1.123-1.584s-.07-.07-.14-.07h-1.824v1.586c0 .069-.07.138-.14.138h-.14c-.07 0-.14-.07-.14-.138v-4.549zm2.174.345h-1.754v2.412h1.754c.841 0 1.332-.551 1.332-1.172-.07-.689-.49-1.24-1.332-1.24zm5.89-.207c0-.069.07-.138.14-.138h.141c.07 0 .14.07.14.138v4.549c0 .069-.07.137-.14.137h-.14c-.07 0-.14-.069-.14-.137v-4.549z" fill="#000"/><path d="M83.803 44.245c0-.069.07-.138.14-.138h.141c.07 0 .14.07.14.138v4.549c0 .069-.07.137-.14.137h-.14c-.07 0-.14-.069-.14-.137v-4.549zm4.909 4.617v-4.755h3.226c.07 0 .14.07.14.138v.138c0 .069-.07.138-.14.138h-2.875v1.93h2.455c.07 0 .14.068.14.137v.138c0 .069-.07.138-.14.138h-2.455v1.792h2.875c.07 0 .14.069.14.138v.137c0 .07-.07.138-.14.138h-3.226v-.207z" fill="#000"/><path d="M88.712 48.862v-4.755h3.226c.07 0 .14.07.14.138v.138c0 .069-.07.138-.14.138h-2.875v1.93h2.455c.07 0 .14.068.14.137v.138c0 .069-.07.138-.14.138h-2.455v1.792h2.875c.07 0 .14.069.14.138v.137c0 .07-.07.138-.14.138h-3.226v-.207zM.49 32.873a.475.475 0 0 1-.49-.482V11.165c0-.276.21-.483.49-.483h.702c.28 0 .491.207.491.482v19.642a.4.4 0 0 0 .42.413h12.133c.28 0 .491.207.491.483v.62c0 .276-.21.482-.49.482H.49v.07z" fill="#000"/><path d="M.49 32.873a.475.475 0 0 1-.49-.482V11.165c0-.276.21-.483.49-.483h.702c.28 0 .491.207.491.482v19.642a.4.4 0 0 0 .42.413h12.133c.28 0 .491.207.491.483v.62c0 .276-.21.482-.49.482H.49v.07zm48.6-21.708c0-.276.21-.483.49-.483h.702c.28 0 .491.207.491.482v13.301c0 4.963-3.296 8.822-9.467 8.822-6.172 0-9.468-3.86-9.468-8.822v-13.3c0-.276.21-.483.491-.483h.702c.28 0 .49.207.49.482v13.233c0 4.204 2.736 7.236 7.785 7.236 5.049 0 7.784-3.032 7.784-7.236V11.165z" fill="#000"/><path d="M49.09 11.165c0-.276.21-.483.49-.483h.702c.28 0 .491.207.491.482v13.301c0 4.963-3.296 8.822-9.467 8.822-6.172 0-9.468-3.86-9.468-8.822v-13.3c0-.276.21-.483.491-.483h.702c.28 0 .49.207.49.482v13.233c0 4.204 2.736 7.236 7.785 7.236 5.049 0 7.784-3.032 7.784-7.236V11.165zm24.124 21.157c0 .276-.21.482-.49.482h-.702a.475.475 0 0 1-.491-.482V11.164c0-.275.21-.482.49-.482h.492c.35 0 .631.138.841.414l15.078 18.607c.07.138.28.07.28-.069v-18.47c0-.275.21-.482.491-.482h.702c.28 0 .49.207.49.482v21.227c0 .276-.21.482-.49.482h-.491c-.35 0-.631-.137-.842-.413L73.495 13.852c-.07-.138-.28-.069-.28.07v18.4z" fill="#000"/><path d="M73.214 32.322c0 .276-.21.482-.49.482h-.702a.475.475 0 0 1-.491-.482V11.164c0-.275.21-.482.49-.482h.492c.35 0 .631.138.841.414l15.078 18.607c.07.138.28.07.28-.069v-18.47c0-.275.21-.482.491-.482h.702c.28 0 .49.207.49.482v21.227c0 .276-.21.482-.49.482h-.491c-.35 0-.631-.137-.842-.413L73.495 13.852c-.07-.138-.28-.069-.28.07v18.4zm45.513-21.226a.865.865 0 0 1 .772-.483h.841c.351 0 .632.207.772.483l9.818 21.295c.14.207 0 .483-.281.483h-.841c-.351 0-.631-.207-.701-.483l-1.964-4.204c-.14-.207-.351-.345-.561-.345h-13.395c-.21 0-.491.138-.561.345l-1.893 4.204c-.14.276-.421.483-.701.483h-.842c-.28 0-.421-.276-.28-.483l9.817-21.295zm1.333 1.723c-.07-.138-.281-.138-.351 0l-6.031 13.025c-.07.138 0 .345.211.345h11.921c.211 0 .351-.207.211-.345l-5.961-13.025z" fill="#000"/><path d="M118.727 11.096a.865.865 0 0 1 .772-.483h.841c.351 0 .632.207.772.483l9.818 21.295c.14.207 0 .483-.281.483h-.841c-.351 0-.631-.207-.701-.483l-1.964-4.204c-.14-.207-.351-.345-.561-.345h-13.395c-.21 0-.491.138-.561.345l-1.893 4.204c-.14.276-.421.483-.701.483h-.842c-.28 0-.421-.276-.28-.483l9.817-21.295zm1.333 1.723c-.07-.138-.281-.138-.351 0l-6.031 13.025c-.07.138 0 .345.211.345h11.921c.211 0 .351-.207.211-.345l-5.961-13.025zM41.095 8.408l-.771-.414c-.21-.068-.28-.344-.14-.482L44.11.207c.07-.207.28-.276.49-.138l.772.414c.21.068.28.344.14.482L41.586 8.27c-.07.207-.28.276-.49.138z" fill="#000"/></svg>