<svg width="22" height="21" viewBox="0 0 22 21" fill="none" xmlns="http://www.w3.org/2000/svg">
<g clip-path="url(#clip0)">
<path d="M20.6206 13.5033L17.0024 11.2046C17.0024 11.2046 17.0024 11.2046 16.9903 11.2046C16.482 10.8812 15.889 10.7079 15.2719 10.7079C14.3038 10.7079 13.4083 11.1238 12.8153 11.8515L12.6338 12.071C12.2103 11.7706 11.6657 11.3317 10.9033 10.604C10.141 9.86469 9.68112 9.34488 9.36649 8.94059L9.59642 8.76733C10.867 7.82013 11.1575 6.07591 10.2741 4.79373C10.2741 4.79373 10.2741 4.79373 10.2741 4.78218L7.85384 1.32838C7.28509 0.4967 6.31699 0 5.27628 0C4.70753 0 4.16297 0.150165 3.67893 0.427393L2.17838 1.29373C1.23448 1.81353 0.556814 2.65677 0.266385 3.65017V3.66172C-0.193461 5.23267 -0.0482462 6.9538 0.677826 8.77888C1.53701 10.9158 3.21908 13.1914 5.69983 15.5594C9.4875 19.1749 13.0211 21 16.2158 21H16.24C16.8813 21 17.5348 20.9191 18.152 20.7574C18.1641 20.7574 18.1641 20.7574 18.1762 20.7574C19.2169 20.4802 20.1003 19.8333 20.6569 18.9439L21.5645 17.5116C22.4116 16.137 22.0002 14.3812 20.6206 13.5033ZM19.7977 16.4835L18.8901 17.9274C18.6118 18.3779 18.152 18.7129 17.6316 18.8515C17.1839 18.967 16.724 19.0248 16.2521 19.0248C16.24 19.0248 16.24 19.0248 16.2279 19.0248C14.1707 19.0248 11.1817 17.9967 7.16407 14.1617C2.10577 9.34488 1.69433 6.07591 2.23888 4.18152C2.3841 3.67327 2.73503 3.24587 3.20698 2.9802L4.71963 2.11386C4.88905 2.02145 5.07056 1.97525 5.26418 1.97525C5.60302 1.97525 5.94185 2.13696 6.13547 2.42574L8.55571 5.87954C8.85824 6.31848 8.76143 6.90759 8.32579 7.23102L6.97045 8.23597C6.78894 8.36304 6.74053 8.60561 6.84944 8.79043L6.95835 8.9868C7.32139 9.62211 7.76913 10.4076 9.4391 12.0017C11.1091 13.5957 11.9319 14.0231 12.5975 14.3696L12.8032 14.4736C12.8758 14.5083 12.9484 14.5314 13.0211 14.5314C13.1542 14.5314 13.2873 14.4736 13.3841 14.3581L14.4369 13.0644C14.6426 12.8102 14.9572 12.6832 15.2719 12.6832C15.4776 12.6832 15.6712 12.7409 15.8527 12.8449L19.471 15.1551C19.9429 15.4323 20.0882 16.033 19.7977 16.4835Z" fill="#3F3F41"/>
</g>
<defs>
<clipPath id="clip0">
<rect width="22" height="21" fill="white"/>
</clipPath>
</defs>
</svg>
