<svg width="14" height="14" viewBox="0 0 14 14" fill="none" xmlns="http://www.w3.org/2000/svg"><path d="M13.755 12.558L9.7 8.501a5.305 5.305 0 0 0 1.024-3.142A5.369 5.369 0 0 0 5.357 0 5.36 5.36 0 0 0 0 5.36a5.367 5.367 0 0 0 5.357 5.359 5.299 5.299 0 0 0 3.14-1.024l4.056 4.056c.169.17.377.249.596.249a.81.81 0 0 0 .596-.249.838.838 0 0 0 .01-1.193zm-8.398-3.53A3.672 3.672 0 0 1 1.69 5.36a3.672 3.672 0 0 1 3.667-3.67 3.672 3.672 0 0 1 3.667 3.67 3.672 3.672 0 0 1-3.667 3.668z" fill="#BFBFBF"/></svg>