<svg width="19" height="19" viewBox="0 0 19 19" fill="none" xmlns="http://www.w3.org/2000/svg">
<path d="M18.8404 0.620723C18.7993 0.572529 18.7486 0.534014 18.6918 0.507795C18.635 0.481576 18.5734 0.468262 18.5111 0.468764C18.3828 0.471407 18.2573 0.508275 18.1469 0.575774C17.1586 0.986692 16.1789 1.39804 15.1906 1.80896C13.604 2.47014 12.0175 3.13731 10.4312 3.81048C8.7668 4.50732 7.09325 5.2046 5.42885 5.91044C3.98122 6.51825 2.52445 7.12564 1.07682 7.73346C0.825584 7.8409 0.565207 7.94748 0.313969 8.05535C0.249395 8.08271 0.191241 8.12398 0.143399 8.1764C0.0955577 8.22881 0.0591337 8.29115 0.0365688 8.35926C-0.0154113 8.50047 -0.011858 8.65701 0.0464696 8.79557C0.104797 8.93412 0.21329 9.04372 0.348851 9.10105C0.843023 9.29752 1.32848 9.50298 1.82265 9.7003C2.75908 10.0757 3.68638 10.4601 4.62281 10.835C4.65159 10.8464 4.67747 10.8643 4.69849 10.8876C4.7195 10.9108 4.73509 10.9386 4.74407 10.969C5.17761 12.4971 5.61987 14.0252 6.053 15.5533C6.17426 15.9732 6.29593 16.4021 6.41719 16.8225C6.44063 16.9075 6.48476 16.985 6.5454 17.0475C6.60603 17.11 6.68117 17.1555 6.76366 17.1797C6.84616 17.2039 6.93329 17.206 7.01677 17.1857C7.10026 17.1654 7.17733 17.1235 7.24067 17.0639C7.63061 16.7155 8.02097 16.376 8.40343 16.0366C8.8187 15.6702 9.23397 15.2948 9.65174 14.9284C9.77182 14.812 9.92924 14.7453 10.094 14.7409C10.274 14.7301 10.4511 14.7914 10.5882 14.9121C10.8743 15.1356 11.1604 15.359 11.4378 15.5824C12.3219 16.2793 13.1977 16.9766 14.0818 17.6734C14.3767 17.9058 14.6715 18.1383 14.9576 18.3617C15.0105 18.4057 15.072 18.4373 15.1379 18.4543C15.2038 18.4713 15.2725 18.4733 15.3393 18.4601C15.4462 18.4401 15.5445 18.3864 15.6206 18.3064C15.6967 18.2263 15.7468 18.1239 15.7641 18.0133C15.8596 17.5309 15.9547 17.048 16.0415 16.5579C16.1889 15.8071 16.3276 15.0568 16.475 14.306C16.6137 13.5642 16.7612 12.8139 16.8999 12.0721C17.0473 11.3213 17.186 10.5799 17.3247 9.82915C17.4721 9.04284 17.6282 8.26551 17.7757 7.47878C17.9056 6.80846 18.0356 6.1296 18.1656 5.45929C18.3043 4.71749 18.4517 3.96714 18.5904 3.22534L18.9804 1.16134C19.006 1.06656 19.0065 0.966422 18.9819 0.871351C18.9573 0.776279 18.9085 0.689739 18.8404 0.620723ZM14.887 4.45425C14.7332 4.62926 14.5681 4.79343 14.3929 4.94563C14.3647 4.9669 14.3386 4.99084 14.3148 5.01712C14.0461 5.29406 13.7862 5.57101 13.5171 5.83939C13.0922 6.25929 12.6936 6.68819 12.2688 7.10852C11.9133 7.44796 11.5927 7.81436 11.2372 8.15422C10.873 8.49366 10.5437 8.86905 10.1883 9.21748C9.83279 9.55692 9.50348 9.92331 9.14801 10.2632C8.80126 10.5936 8.48026 10.9515 8.13351 11.2905C8.03799 11.3799 7.9429 11.469 7.85611 11.5584C7.61323 11.8022 7.44971 12.1176 7.3881 12.4612C7.35321 12.6486 7.34657 12.8464 7.31875 13.033C7.29092 13.2197 7.27722 13.4084 7.2494 13.5959C7.22324 13.8014 7.19749 13.9983 7.17132 14.2037C7.16597 14.3001 7.15207 14.3958 7.1298 14.4896C7.12288 14.5422 7.09833 14.5907 7.06041 14.6265C7.02249 14.6624 6.97358 14.6835 6.92216 14.6861C6.89597 14.6898 6.86933 14.6881 6.84379 14.6811C6.81824 14.6741 6.7943 14.6619 6.77333 14.6453C6.75237 14.6287 6.7348 14.608 6.72164 14.5844C6.70848 14.5607 6.7 14.5347 6.69667 14.5076C6.63604 14.3112 6.59285 14.1057 6.53056 13.9084C6.37442 13.3006 6.20997 12.6932 6.05383 12.0853C5.95832 11.7369 5.87194 11.3885 5.77643 11.0396C5.74809 10.9437 5.73067 10.8448 5.72452 10.7447C5.72582 10.5648 5.77296 10.3883 5.86121 10.233C5.94947 10.0778 6.07575 9.94911 6.22742 9.85996L6.9558 9.37756C7.6493 8.91271 8.33408 8.44829 9.028 7.99243C9.40963 7.73346 9.79085 7.48306 10.1725 7.22195C10.7273 6.85555 11.2734 6.48016 11.8282 6.11376C12.2355 5.8458 12.6429 5.56886 13.042 5.30048L14.6807 4.20127C14.7673 4.14763 14.8365 4.14763 14.8883 4.20127C14.9199 4.23515 14.9374 4.28039 14.9372 4.32738C14.937 4.37437 14.919 4.41942 14.887 4.45296V4.45425Z" fill="white"/>
</svg>
