<svg width="24" height="19" viewBox="0 0 24 19" fill="none" xmlns="http://www.w3.org/2000/svg">
<g clip-path="url(#clip0)">
<path d="M24 0.994257C24 0.970006 24 0.945756 24 0.933631C24 0.921506 24 0.897256 23.9886 0.885131C23.9886 0.873006 23.9886 0.848756 23.9771 0.836631C23.9771 0.824505 23.9657 0.800255 23.9657 0.78813C23.9657 0.776005 23.9543 0.751755 23.9543 0.73963C23.9543 0.727505 23.9429 0.703255 23.9429 0.69113C23.9429 0.679004 23.9314 0.654754 23.9314 0.642629C23.92 0.630504 23.92 0.606254 23.9086 0.594129C23.8971 0.582004 23.8971 0.557754 23.8857 0.545629C23.8743 0.533504 23.8743 0.521378 23.8629 0.497128C23.8514 0.485003 23.8514 0.472878 23.84 0.448628C23.8286 0.436503 23.8171 0.424378 23.8057 0.400128C23.7943 0.388003 23.7829 0.375877 23.7829 0.363752C23.7714 0.351627 23.76 0.327377 23.7371 0.315252C23.7257 0.303127 23.7257 0.303127 23.7143 0.291002C23.6914 0.266752 23.6686 0.242502 23.6457 0.218251C23.6343 0.206126 23.6229 0.206126 23.6114 0.194001C23.6 0.181876 23.5771 0.169751 23.5657 0.157626C23.5543 0.145501 23.5314 0.133376 23.52 0.133376C23.5086 0.121251 23.4971 0.121251 23.4857 0.109126C23.4743 0.0970006 23.4514 0.0970006 23.44 0.0848756C23.4286 0.0727505 23.4171 0.0727505 23.4057 0.0606254C23.3943 0.0485003 23.3714 0.0485003 23.36 0.0485003C23.3486 0.0485003 23.3257 0.0363752 23.3143 0.0363752C23.3029 0.0363752 23.28 0.0242502 23.2686 0.0242502C23.2571 0.0242502 23.2343 0.0121251 23.2229 0.0121251C23.2 0.0121251 23.1771 0 23.1429 0C23.1314 0 23.1314 0 23.12 0C23.0857 0 23.0514 0 23.0286 0H0.971429C0.937143 0 0.914286 0 0.88 0C0.857143 0 0.845714 0 0.822857 0.0121251C0.811429 0.0121251 0.788571 0.0121251 0.777143 0.0242502C0.754286 0.0242502 0.742857 0.0363752 0.72 0.0363752C0.708571 0.0363752 0.697143 0.0363752 0.685714 0.0485003C0.674286 0.0485003 0.651429 0.0606254 0.64 0.0727505C0.628571 0.0727505 0.617143 0.0848756 0.594286 0.0848756C0.582857 0.0848756 0.571429 0.0970006 0.56 0.0970006C0.537143 0.109126 0.525714 0.109126 0.514286 0.121251C0.502857 0.133376 0.491429 0.133376 0.468571 0.145501C0.457143 0.157626 0.445714 0.169751 0.434286 0.169751C0.411429 0.181876 0.4 0.206126 0.377143 0.218251C0.365714 0.218251 0.365714 0.230377 0.354286 0.242502C0.331429 0.254627 0.308571 0.278877 0.285714 0.303127C0.274286 0.315252 0.262857 0.327377 0.262857 0.327377C0.251429 0.351627 0.228571 0.363752 0.217143 0.375877C0.205714 0.388003 0.205714 0.400128 0.194286 0.412253C0.182857 0.436503 0.171429 0.448628 0.16 0.460753C0.148571 0.472878 0.148571 0.485003 0.137143 0.509253C0.125714 0.521378 0.125714 0.533504 0.114286 0.545629C0.102857 0.557754 0.102857 0.582004 0.0914286 0.594129C0.0914286 0.606254 0.08 0.618379 0.0685714 0.642629C0.0685714 0.654754 0.0571429 0.666879 0.0571429 0.69113C0.0571429 0.703255 0.0457143 0.727505 0.0457143 0.73963C0.0457143 0.751755 0.0342857 0.776005 0.0342857 0.78813C0.0342857 0.800255 0.0228571 0.824505 0.0228571 0.836631C0.0228571 0.848756 0.0228571 0.873006 0.0114286 0.885131C0.0114286 0.897256 0.0114286 0.921506 0 0.933631C0 0.957881 0 0.970006 0 0.994257C0 1.00638 0 1.01851 0 1.03063V17.9694C0 18.5392 0.434286 19 0.971429 19H23.0286C23.5657 19 24 18.5392 24 17.9694V1.03063C24 1.01851 24 1.00638 24 0.994257ZM20.6629 2.06126L13.12 9.96681C12.4571 10.6579 11.5314 10.6579 10.8686 9.96681L3.33714 2.06126H20.6629ZM1.94286 16.9387V3.50415L9.50857 11.4461C10.2171 12.1978 11.1086 12.5616 12 12.5616C12.8914 12.5616 13.7829 12.1857 14.4914 11.4461L22.0571 3.50415V16.9387H1.94286Z" fill="#3F3F41"/>
</g>
<defs>
<clipPath id="clip0">
<rect width="24" height="19" fill="white"/>
</clipPath>
</defs>
</svg>
