<svg width="13" height="12" viewBox="0 0 13 12" fill="none" xmlns="http://www.w3.org/2000/svg">
<path fill-rule="evenodd" clip-rule="evenodd" d="M12.1097 3.87904C12.1097 2.23358 10.7773 0.888425 9.13362 0.888425C8.37404 0.888425 7.65182 1.17623 7.0977 1.69552L6.5 2.25899V10.8488L8.97797 8.79041C8.9787 8.78967 8.98453 8.78465 8.99502 8.77563C9.16316 8.63088 10.5274 7.45645 11.2131 6.4317C11.842 5.49322 12.1097 4.72993 12.1097 3.87904ZM6.5 1.04484C7.18487 0.394161 8.11255 0 9.13362 0C11.2629 0 12.9938 1.73931 13 3.87904C13 5.06152 12.558 6.01877 11.954 6.92596C11.1446 8.13973 9.54454 9.47237 9.54454 9.47237L6.5 12L3.45546 9.47237C3.45546 9.47237 1.85536 8.13347 1.04598 6.92596C0.44205 6.01877 0 5.05527 0 3.87904C0 1.73931 1.73084 0 3.86015 0C4.88123 0 5.80891 0.400417 6.5 1.04484Z" fill="#DBB7A6"/>
</svg>
