<svg width="21" height="12" viewBox="0 0 21 12" fill="none" xmlns="http://www.w3.org/2000/svg">
<g opacity="0.35">
<path d="M1.24932 11.9795H7.62675C8.0208 11.9795 8.3319 11.6715 8.3319 11.2814V11.2609C8.3319 10.8708 8.0208 10.5629 7.62675 10.5629H2.53518C2.45222 10.5629 2.39 10.5013 2.39 10.4192V6.65184C2.39 6.56972 2.45222 6.50813 2.53518 6.50813H6.77643C7.17048 6.50813 7.48157 6.20017 7.48157 5.8101C7.48157 5.42002 7.17048 5.11206 6.77643 5.11206H2.53518C2.45222 5.11206 2.39 5.05047 2.39 4.96835V1.58084C2.39 1.49872 2.45222 1.43713 2.53518 1.43713H7.5749C7.96895 1.43713 8.28005 1.12917 8.28005 0.739093V0.698033C8.26968 0.307956 7.95858 0 7.5749 0H1.24932C0.844901 0 0.523438 0.318221 0.523438 0.718563V11.2609C0.523438 11.6613 0.844901 11.9795 1.24932 11.9795Z" fill="#C4C4C4"/>
<path d="M20.7977 10.7476V0.913601C20.7977 0.410607 20.3829 0 19.8748 0C19.3666 0 18.9518 0.410607 18.9518 0.913601V9.10522L13.5492 0.585115C13.321 0.225834 12.927 0.0102652 12.5018 0.0102652C11.8174 0.0102652 11.2574 0.564585 11.2574 1.24209V11.0864C11.2574 11.5894 11.6722 12 12.1804 12H12.2011C12.7092 12 13.124 11.5894 13.124 11.0864V2.91531L18.5163 11.4046C18.7444 11.7639 19.1385 11.9795 19.5637 11.9795C20.2377 11.9795 20.7977 11.4251 20.7977 10.7476Z" fill="#C4C4C4"/>
</g>
</svg>
