<svg width="22" height="12" viewBox="0 0 22 12" fill="none" xmlns="http://www.w3.org/2000/svg">
<g opacity="0.35">
<path d="M9.08612 7.95608V0.861486C9.08612 0.385135 8.70043 0 8.22339 0H8.1422C7.66516 0 7.27947 0.385135 7.27947 0.861486V7.89527C7.27947 9.68919 6.41675 10.6014 4.70145 10.6014C3.86918 10.6014 3.2196 10.3682 2.78316 9.91216C2.34673 9.45608 2.12343 8.7973 2.12343 7.95608V0.861486C2.12343 0.385135 1.7276 0 1.26071 0H1.16936C0.692329 0 0.306641 0.385135 0.306641 0.861486V7.94595C0.306641 9.21284 0.702478 10.2162 1.484 10.9257C2.26553 11.6351 3.35155 12 4.6913 12C6.02091 12 7.09678 11.6351 7.88845 10.9054C8.68013 10.1858 9.08612 9.19257 9.08612 7.95608Z" fill="#C4C4C4"/>
<path d="M19.0211 9.01013L19.8128 11.25C19.9346 11.5946 20.2594 11.8277 20.6247 11.8277H20.6552C21.254 11.8277 21.6803 11.2196 21.4672 10.6622L17.6306 0.557432C17.4986 0.222973 17.184 0 16.8186 0H16.3213C15.966 0 15.6413 0.222973 15.5093 0.557432L11.6829 10.6622C11.4697 11.2297 11.8859 11.8277 12.4949 11.8277H12.5152C12.8805 11.8277 13.2053 11.5946 13.3271 11.25L14.1087 9.01013H19.0211ZM16.575 1.99662L18.5339 7.60135H14.6161L16.575 1.99662Z" fill="#C4C4C4"/>
</g>
</svg>
