<svg width="16" height="21" viewBox="0 0 16 21" fill="none" xmlns="http://www.w3.org/2000/svg">
<path d="M8.00003 5.50342C6.60575 5.50342 5.46289 6.64322 5.46289 8.05934C5.46289 9.46394 6.59432 10.6153 8.00003 10.6153C9.40575 10.6153 10.5372 9.46394 10.5372 8.05934C10.5372 6.65473 9.39432 5.50342 8.00003 5.50342Z" fill="#3F3F41"/>
<path d="M8 0C3.58857 0 0 3.61513 0 8.05921C0 14.6217 7.08571 20.528 7.38286 20.7812C7.56571 20.9309 7.78286 21 8 21C8.21714 21 8.43429 20.9309 8.61714 20.7812C8.91429 20.528 16 14.6217 16 8.05921C16 3.61513 12.4114 0 8 0ZM8 18.7204C6.34286 17.1776 1.94286 12.653 1.94286 8.05921C1.94286 4.69737 4.66286 1.95724 8 1.95724C11.3371 1.95724 14.0571 4.69737 14.0571 8.05921C14.0571 12.653 9.65714 17.1776 8 18.7204Z" fill="#3F3F41"/>
</svg>
