<svg width="14" height="15" viewBox="0 0 14 15" fill="none" xmlns="http://www.w3.org/2000/svg">
<path d="M12.2734 15.0002C11.7757 15.0002 11.3733 14.6161 11.3733 14.1411C11.3733 11.6245 9.22361 9.57276 6.58678 9.57276C3.94995 9.57276 1.80025 11.6245 1.80025 14.1411C1.80025 14.6161 1.39784 15.0002 0.900123 15.0002C0.402408 15.0002 0 14.6161 0 14.1411C0 10.6744 2.95452 7.84448 6.59737 7.84448C10.2402 7.84448 13.1947 10.6643 13.1947 14.1411C13.1736 14.6161 12.7712 15.0002 12.2734 15.0002Z" fill="#BFBFBF"/>
<path d="M6.57628 6.90447C4.79722 6.90447 3.34644 5.51982 3.34644 3.82186C3.34644 2.1239 4.79722 0.739258 6.57628 0.739258C8.35534 0.739258 9.80613 2.1239 9.80613 3.82186C9.80613 5.52993 8.35534 6.90447 6.57628 6.90447Z" fill="#BFBFBF"/>
</svg>
