<svg width="20" height="22" viewBox="0 0 20 22" fill="none" xmlns="http://www.w3.org/2000/svg">
<path d="M19.8281 8.83682C19.7434 7.72032 19.6091 6.61848 19.242 5.55878C18.8604 4.44968 18.3023 3.46061 17.3415 2.73963C16.6159 2.21846 15.8057 1.82657 14.9467 1.58127C13.3585 1.11237 11.7066 0.895456 10.0512 0.938442C8.17902 0.903133 6.48348 1.07968 4.83037 1.59536C3.82719 1.90561 2.86631 2.34425 2.10374 3.08602C0.917465 4.25165 0.428998 5.74231 0.182113 7.33192C0.0855709 8.07723 0.0313339 8.82742 0.0196628 9.57887C-0.0372786 11.0974 0.0121264 12.61 0.401086 14.0859C0.987246 16.3189 2.28741 17.9008 4.54803 18.6077C4.62607 18.6221 4.69547 18.6662 4.7416 18.7308C4.78773 18.7954 4.807 18.8753 4.79534 18.9538C4.78119 19.5543 4.78119 20.1548 4.79534 20.7553C4.80929 21.165 4.8372 21.6031 5.2898 21.8009C5.77729 22.0058 6.11643 21.709 6.44133 21.4052C6.45003 21.3973 6.45721 21.3878 6.46254 21.3773C7.02777 20.7486 7.593 20.1198 8.14399 19.4769C8.18397 19.4204 8.23876 19.376 8.30232 19.3485C8.36589 19.3211 8.43579 19.3117 8.50434 19.3214C9.52474 19.4027 10.55 19.4027 11.5704 19.3214C13.0257 19.2155 14.4528 18.9753 15.8234 18.4595C17.4059 17.8661 18.4939 16.7568 19.1226 15.1886C19.6101 13.9805 19.7302 12.7159 19.8079 11.4371C19.8818 10.5722 19.8885 9.70281 19.8281 8.83682ZM18.3657 10.6595C18.3495 11.6111 18.2478 12.5593 18.0618 13.4926C17.6239 15.4636 16.4652 16.7494 14.473 17.2722C12.9604 17.6599 11.4069 17.8661 9.84553 17.8863C9.53883 17.89 9.23217 17.876 8.92707 17.8444C8.82911 17.8326 8.72975 17.8459 8.63831 17.883C8.54687 17.92 8.46634 17.9797 8.40427 18.0564C7.52112 19.0314 6.62402 19.9993 5.73375 20.9671C5.67793 21.023 5.64192 21.1014 5.51478 21.1155C5.51478 20.0628 5.48687 19.0314 5.51478 17.9999C5.53599 17.3712 5.5219 17.3569 4.93546 17.138C3.21884 16.488 2.25084 15.2022 1.79866 13.4714C1.51605 12.3828 1.48786 11.2671 1.49483 10.1509C1.48155 9.08173 1.57859 8.01402 1.78442 6.96473C2.21539 4.93717 3.39525 3.60129 5.3875 2.98721C6.90635 2.51382 8.46777 2.3938 10.0503 2.41501C11.3573 2.42897 12.6571 2.52094 13.9217 2.85295C14.7977 3.08602 15.6523 3.36933 16.3874 3.92674C17.1291 4.49197 17.5318 5.27617 17.8215 6.13099C18.3451 7.60755 18.4229 9.11943 18.3664 10.6595H18.3657Z" fill="white"/>
<path d="M12.9616 15.7889C12.6296 15.8242 12.3476 15.6546 12.0574 15.5346C10.1543 14.7348 8.45652 13.5152 7.09097 11.967C5.95354 10.6671 5.0422 9.22585 4.49819 7.57274C4.27921 6.90159 4.31452 6.63307 4.90082 6.07496C5.16046 5.83814 5.44464 5.62971 5.74852 5.45321C6.14418 5.22014 6.5256 5.22712 6.83711 5.55216C7.43722 6.16624 7.98863 6.82385 8.34898 7.60805C8.55386 8.046 8.48324 8.3074 8.10168 8.62532C8.00273 8.71003 7.90392 8.79489 7.80497 8.87262C7.43052 9.16933 7.35991 9.389 7.48705 9.85458C7.69192 10.5894 8.13699 11.1757 8.68812 11.6773C9.1347 12.1113 9.66302 12.4522 10.2424 12.6804C10.7652 12.8641 10.963 12.8006 11.2951 12.3625C11.4576 12.1505 11.5918 11.9174 11.8813 11.8256C12.0154 11.7822 12.1573 11.7679 12.2974 11.7837C12.4375 11.7996 12.5726 11.8452 12.6937 11.9174C13.3966 12.3236 14.0569 12.7994 14.6647 13.3375C14.7892 13.4577 14.8705 13.6157 14.896 13.7868C14.9216 13.958 14.8899 14.1328 14.806 14.2841C14.5164 14.8663 14.0618 15.3504 13.499 15.6759C13.334 15.7631 13.1478 15.8022 12.9616 15.7889Z" fill="white"/>
<path d="M14.6713 10.0099V10.2925C14.6784 10.4055 14.6501 10.5255 14.523 10.5327C14.3817 10.5398 14.3817 10.4125 14.3746 10.3066C14.3463 9.83851 14.2825 9.37327 14.1838 8.91485C13.9817 8.08995 13.5408 7.34299 12.9162 6.76746C12.2917 6.19193 11.5112 5.8134 10.6726 5.67924C10.4416 5.63826 10.2078 5.61465 9.97325 5.60863C9.85309 5.60863 9.64821 5.67227 9.65533 5.44617C9.65533 5.23418 9.839 5.26949 9.97325 5.27661C10.7244 5.30358 11.4603 5.49662 12.128 5.84183C13.5621 6.61194 14.3816 7.81287 14.6006 9.43067C14.6145 9.5366 14.65 9.63555 14.6564 9.74148C14.6635 9.83331 14.6564 9.93226 14.6564 10.0241C14.6642 10.0099 14.6713 10.0099 14.6713 10.0099Z" fill="white"/>
<path d="M13.3998 9.58542V9.86803C13.3998 9.96698 13.3579 10.0305 13.2585 10.0305C13.1592 10.0305 13.1102 9.96684 13.1102 9.86803C13.1031 9.67725 13.0749 9.49358 13.0543 9.30978C12.8989 7.98869 11.8681 7.05613 10.5181 6.88657C10.401 6.87628 10.2851 6.85497 10.172 6.82293C10.1377 6.81379 10.1083 6.79181 10.0899 6.76155C10.0715 6.73129 10.0654 6.69508 10.073 6.66048C10.0749 6.62489 10.0908 6.5915 10.1173 6.56766C10.1438 6.54382 10.1787 6.53147 10.2143 6.53333C10.4028 6.52847 10.5911 6.55228 10.7725 6.60395C11.4925 6.70938 12.1518 7.0669 12.6329 7.61288C13.114 8.15885 13.3858 8.85785 13.3998 9.58542Z" fill="white"/>
<path d="M10.6798 7.81234C11.6265 7.89705 12.0999 8.49759 12.1846 9.36664C12.1986 9.4868 12.1846 9.62092 12.0222 9.62804C11.8738 9.62804 11.8526 9.50788 11.8385 9.38074C11.7395 8.56123 11.4853 8.29983 10.6662 8.15147C10.546 8.13026 10.4189 8.12356 10.4331 7.95372C10.4538 7.81234 10.5668 7.80536 10.6798 7.81234Z" fill="white"/>
</svg>
